<svg width="40" height="40" viewBox="0 0 40 40" fill="none" xmlns="http://www.w3.org/2000/svg">
<path d="M40 20C40 8.95431 31.0457 0 20 0C8.95431 0 0 8.95431 0 20C0 31.0457 8.95431 40 20 40C31.0457 40 40 31.0457 40 20Z" fill="black"/>
<path fill-rule="evenodd" clip-rule="evenodd" d="M29.7875 20.2271C29.7875 19.518 29.7239 18.8362 29.6057 18.1816H20.1875V22.0498H25.5693C25.3375 23.2998 24.633 24.3589 23.5739 25.068V27.5771H26.8057C28.6966 25.8362 29.7875 23.2726 29.7875 20.2271Z" fill="white"/>
<path fill-rule="evenodd" clip-rule="evenodd" d="M20.1874 29.9999C22.8874 29.9999 25.151 29.1045 26.8056 27.5772L23.5737 25.0681C22.6783 25.6681 21.5328 26.0226 20.1874 26.0226C17.5828 26.0226 15.3783 24.2635 14.5919 21.8999H11.251V24.4908C12.8964 27.759 16.2783 29.9999 20.1874 29.9999Z" fill="white"/>
<path fill-rule="evenodd" clip-rule="evenodd" d="M14.5921 21.8997C14.3921 21.2997 14.2784 20.6588 14.2784 19.9997C14.2784 19.3406 14.3921 18.6997 14.5921 18.0997V15.5088H11.2511C10.5739 16.8588 10.1875 18.3861 10.1875 19.9997C10.1875 21.6133 10.5739 23.1406 11.2511 24.4906L14.5921 21.8997Z" fill="white"/>
<path fill-rule="evenodd" clip-rule="evenodd" d="M20.1874 13.9773C21.6555 13.9773 22.9737 14.4818 24.0101 15.4727L26.8783 12.6046C25.1465 10.9909 22.8828 10 20.1874 10C16.2783 10 12.8964 12.2409 11.251 15.5091L14.5919 18.1C15.3783 15.7364 17.5828 13.9773 20.1874 13.9773Z" fill="white"/>
</svg>
