<svg width="248" height="33" viewBox="0 0 248 33" fill="none" xmlns="http://www.w3.org/2000/svg">
<path d="M7.496 1.28C8.488 1.28 9.608 1.264 10.856 1.232C12.136 1.168 13.224 1.088 14.12 0.991999C14.216 1.12 14.264 1.408 14.264 1.856C14.296 2.272 14.248 2.56 14.12 2.72C13.928 2.72 13.592 2.752 13.112 2.816C12.664 2.848 12.232 2.928 11.816 3.056C11.432 3.152 11.192 3.312 11.096 3.536C10.936 3.952 10.84 4.48 10.808 5.12C10.776 5.76 10.76 6.496 10.76 7.328C10.76 7.424 10.76 7.536 10.76 7.664C10.76 7.76 10.76 7.856 10.76 7.952V14.624C10.76 14.656 10.76 14.688 10.76 14.72C10.792 14.752 10.808 14.768 10.808 14.768C11.736 14.8 12.648 14.832 13.544 14.864C14.472 14.896 15.464 14.912 16.52 14.912C17.384 14.912 18.296 14.896 19.256 14.864C20.248 14.832 21.16 14.8 21.992 14.768C21.992 14.768 22.008 14.752 22.04 14.72C22.072 14.656 22.088 14.608 22.088 14.576L22.04 7.952C22.04 6.928 22.024 6.064 21.992 5.36C21.96 4.624 21.848 4.016 21.656 3.536C21.592 3.312 21.352 3.152 20.936 3.056C20.52 2.928 20.088 2.848 19.64 2.816C19.224 2.752 18.904 2.72 18.68 2.72C18.552 2.56 18.488 2.272 18.488 1.856C18.52 1.408 18.584 1.12 18.68 0.991999C19.608 1.088 20.696 1.168 21.944 1.232C23.224 1.264 24.36 1.28 25.352 1.28C26.344 1.28 27.464 1.264 28.712 1.232C29.992 1.168 31.08 1.088 31.976 0.991999C32.072 1.12 32.12 1.408 32.12 1.856C32.152 2.272 32.104 2.56 31.976 2.72C31.784 2.72 31.448 2.752 30.968 2.816C30.52 2.848 30.088 2.928 29.672 3.056C29.288 3.152 29.048 3.312 28.952 3.536C28.792 3.952 28.696 4.48 28.664 5.12C28.632 5.76 28.616 6.496 28.616 7.328C28.616 7.424 28.616 7.536 28.616 7.664C28.616 7.76 28.616 7.856 28.616 7.952V25.184C28.616 25.28 28.616 25.392 28.616 25.52C28.616 25.616 28.616 25.712 28.616 25.808C28.616 26.64 28.632 27.376 28.664 28.016C28.696 28.656 28.792 29.184 28.952 29.6C29.048 29.792 29.288 29.952 29.672 30.08C30.088 30.208 30.52 30.304 30.968 30.368C31.448 30.4 31.784 30.432 31.976 30.464C32.104 30.624 32.152 30.912 32.12 31.328C32.12 31.744 32.072 32.032 31.976 32.192C31.08 32.096 29.976 32.016 28.664 31.952C27.384 31.888 26.248 31.856 25.256 31.856C24.264 31.856 23.144 31.888 21.896 31.952C20.68 32.016 19.608 32.096 18.68 32.192C18.584 32.032 18.52 31.744 18.488 31.328C18.488 30.912 18.552 30.624 18.68 30.464C18.904 30.432 19.224 30.4 19.64 30.368C20.088 30.304 20.52 30.208 20.936 30.08C21.352 29.952 21.592 29.792 21.656 29.6C21.848 29.12 21.96 28.512 21.992 27.776C22.024 27.04 22.04 26.176 22.04 25.184V17.456C22.04 17.392 22.024 17.344 21.992 17.312C21.96 17.248 21.944 17.216 21.944 17.216C21.08 17.184 20.2 17.168 19.304 17.168C18.408 17.136 17.48 17.12 16.52 17.12C14.792 17.12 13.528 17.136 12.728 17.168C11.928 17.168 11.416 17.184 11.192 17.216C10.968 17.248 10.824 17.28 10.76 17.312C10.728 17.344 10.712 17.392 10.712 17.456C10.744 17.488 10.76 17.504 10.76 17.504V25.184C10.76 25.28 10.76 25.392 10.76 25.52C10.76 25.616 10.76 25.712 10.76 25.808C10.76 26.64 10.776 27.376 10.808 28.016C10.84 28.656 10.936 29.184 11.096 29.6C11.192 29.792 11.432 29.952 11.816 30.08C12.232 30.208 12.664 30.304 13.112 30.368C13.592 30.4 13.928 30.432 14.12 30.464C14.248 30.624 14.296 30.912 14.264 31.328C14.264 31.744 14.216 32.032 14.12 32.192C13.224 32.096 12.12 32.016 10.808 31.952C9.528 31.888 8.392 31.856 7.4 31.856C6.408 31.856 5.288 31.888 4.04 31.952C2.792 32.016 1.704 32.096 0.776 32.192C0.68 32.032 0.616 31.744 0.584 31.328C0.584 30.912 0.648 30.624 0.776 30.464C1 30.432 1.336 30.4 1.784 30.368C2.232 30.304 2.664 30.208 3.08 30.08C3.496 29.952 3.736 29.792 3.8 29.6C3.992 29.12 4.104 28.512 4.136 27.776C4.168 27.04 4.184 26.176 4.184 25.184V7.952C4.184 6.928 4.168 6.064 4.136 5.36C4.104 4.624 3.992 4.016 3.8 3.536C3.736 3.312 3.496 3.152 3.08 3.056C2.664 2.928 2.232 2.848 1.784 2.816C1.336 2.752 1 2.72 0.776 2.72C0.648 2.56 0.584 2.272 0.584 1.856C0.616 1.408 0.68 1.12 0.776 0.991999C1.704 1.088 2.808 1.168 4.088 1.232C5.368 1.264 6.504 1.28 7.496 1.28ZM51.0736 0.751999C53.1536 0.751999 55.1376 1.168 57.0256 2C58.9456 2.8 60.6416 3.936 62.1136 5.408C63.6176 6.848 64.8016 8.528 65.6656 10.448C66.5616 12.368 67.0096 14.432 67.0096 16.64C67.0096 18.848 66.5616 20.912 65.6656 22.832C64.8016 24.72 63.6176 26.4 62.1136 27.872C60.6416 29.312 58.9456 30.448 57.0256 31.28C55.1376 32.08 53.1536 32.48 51.0736 32.48C49.0256 32.48 47.0416 32.08 45.1216 31.28C43.2016 30.448 41.4896 29.312 39.9856 27.872C38.5136 26.4 37.3296 24.72 36.4336 22.832C35.5696 20.912 35.1376 18.848 35.1376 16.64C35.1376 14.432 35.5696 12.368 36.4336 10.448C37.3296 8.528 38.5136 6.848 39.9856 5.408C41.4896 3.936 43.2016 2.8 45.1216 2C47.0416 1.168 49.0256 0.751999 51.0736 0.751999ZM49.9696 2.768C48.5936 2.768 47.4256 3.136 46.4656 3.872C45.5376 4.608 44.7856 5.584 44.2096 6.8C43.6656 7.984 43.2656 9.296 43.0096 10.736C42.7536 12.176 42.6256 13.6 42.6256 15.008C42.6256 16.8 42.7856 18.608 43.1056 20.432C43.4576 22.224 44.0016 23.888 44.7376 25.424C45.4736 26.928 46.4336 28.144 47.6176 29.072C48.8336 30 50.3216 30.464 52.0816 30.464C53.4896 30.464 54.6576 30.112 55.5856 29.408C56.5456 28.672 57.3136 27.712 57.8896 26.528C58.4656 25.344 58.8816 24.032 59.1376 22.592C59.3936 21.152 59.5216 19.728 59.5216 18.32C59.5216 16.528 59.3456 14.72 58.9936 12.896C58.6736 11.072 58.1296 9.392 57.3616 7.856C56.6256 6.32 55.6496 5.088 54.4336 4.16C53.2176 3.232 51.7296 2.768 49.9696 2.768ZM76.2973 1.232C77.0973 1.232 77.8813 1.2 78.6493 1.136C79.4493 1.072 80.3133 1.024 81.2413 0.991999C81.5933 1.728 82.0733 2.8 82.6813 4.208C83.3213 5.616 84.0413 7.232 84.8413 9.056C85.6413 10.88 86.4893 12.816 87.3853 14.864C88.3133 16.88 89.2093 18.88 90.0733 20.864C90.0733 20.864 90.0893 20.88 90.1213 20.912C90.1853 20.944 90.2333 20.96 90.2653 20.96C90.2973 20.96 90.3293 20.928 90.3613 20.864C90.4253 20.768 90.4573 20.704 90.4573 20.672C90.4573 20.672 90.6493 20.208 91.0333 19.28C91.4173 18.32 91.8973 17.104 92.4733 15.632C93.0493 14.16 93.6413 12.608 94.2493 10.976C94.8893 9.344 95.4653 7.824 95.9773 6.416C96.2333 5.744 96.4733 5.008 96.6973 4.208C96.9533 3.376 97.1613 2.656 97.3213 2.048C97.4813 1.44 97.5613 1.136 97.5613 1.136C97.7213 1.136 98.1373 1.152 98.8093 1.184C99.5133 1.216 100.249 1.248 101.017 1.28C101.785 1.28 102.313 1.28 102.601 1.28C103.401 1.28 104.281 1.248 105.241 1.184C106.201 1.088 107.145 1.024 108.073 0.991999C108.169 1.088 108.249 1.36 108.313 1.808C108.409 2.256 108.393 2.576 108.265 2.768C108.073 2.768 107.673 2.816 107.065 2.912C106.489 2.976 106.073 3.088 105.817 3.248C105.593 3.408 105.417 3.616 105.289 3.872C105.193 4.096 105.161 4.528 105.193 5.168C105.225 5.968 105.257 7.168 105.289 8.768C105.353 10.336 105.417 12.08 105.481 14C105.545 15.92 105.609 17.84 105.673 19.76C105.737 21.68 105.801 23.392 105.865 24.896C105.929 25.792 105.993 26.656 106.057 27.488C106.121 28.288 106.265 28.992 106.489 29.6C106.585 29.824 106.841 30 107.257 30.128C107.705 30.256 108.153 30.352 108.601 30.416C109.049 30.448 109.337 30.464 109.465 30.464C109.721 31.008 109.753 31.584 109.561 32.192C108.633 32.128 107.593 32.048 106.441 31.952C105.289 31.856 104.201 31.808 103.177 31.808C102.089 31.808 100.857 31.856 99.4813 31.952C98.1053 32.048 96.8733 32.128 95.7853 32.192C95.6893 32.096 95.6253 31.84 95.5933 31.424C95.5933 30.976 95.6253 30.656 95.6893 30.464C95.8813 30.464 96.2173 30.432 96.6973 30.368C97.1773 30.304 97.6413 30.208 98.0893 30.08C98.5693 29.952 98.8733 29.776 99.0013 29.552C99.1293 29.36 99.2253 29.104 99.2893 28.784C99.3533 28.432 99.3853 28.144 99.3853 27.92C99.3853 27.664 99.3853 27.232 99.3853 26.624C99.3853 25.984 99.3693 25.456 99.3373 25.04L98.8573 8.72C98.8573 8.656 98.8413 8.432 98.8093 8.048C98.7773 7.664 98.6813 7.472 98.5213 7.472C98.4573 7.472 98.3773 7.584 98.2812 7.808L90.0253 30.128C89.9933 30.256 89.8653 30.48 89.6413 30.8C89.4173 31.12 89.1613 31.424 88.8733 31.712C88.5853 31.968 88.2973 32.096 88.0093 32.096C87.9133 32.096 87.7693 32.064 87.5773 32L77.1613 7.472C77.0973 9.424 77.0333 11.088 76.9693 12.464C76.9373 13.808 76.9053 14.992 76.8733 16.016C76.8413 17.008 76.8093 17.968 76.7773 18.896C76.7453 19.824 76.7133 20.832 76.6813 21.92C76.6493 22.976 76.6013 24.24 76.5373 25.712C76.5053 26.224 76.5213 26.864 76.5853 27.632C76.6493 28.368 76.6973 28.816 76.7293 28.976C76.7933 29.232 77.0173 29.456 77.4013 29.648C77.7853 29.84 78.2173 30 78.6973 30.128C79.2093 30.224 79.6573 30.304 80.0413 30.368C80.4573 30.432 80.7133 30.464 80.8093 30.464C80.8733 30.624 80.9213 30.896 80.9532 31.28C80.9853 31.632 80.9693 31.936 80.9053 32.192C79.9773 32.128 79.0333 32.048 78.0733 31.952C77.1133 31.856 76.1213 31.808 75.0973 31.808C74.0093 31.808 73.0333 31.856 72.1693 31.952C71.3053 32.048 70.3293 32.128 69.2413 32.192C69.1453 32.032 69.0973 31.776 69.0973 31.424C69.0973 31.04 69.1293 30.736 69.1933 30.512C69.3853 30.512 69.7693 30.464 70.3453 30.368C70.9213 30.24 71.4973 30.048 72.0733 29.792C72.6493 29.536 73.0173 29.216 73.1773 28.832C73.2413 28.672 73.3053 28.32 73.3693 27.776C73.4653 27.2 73.5453 26.608 73.6093 26C73.6733 25.392 73.7053 24.96 73.7053 24.704C73.7693 23.616 73.8333 22.304 73.8973 20.768C73.9613 19.232 74.0253 17.632 74.0893 15.968C74.1533 14.304 74.2173 12.704 74.2812 11.168C74.3453 9.632 74.3933 8.304 74.4253 7.184C74.4573 6.032 74.4893 5.232 74.5213 4.784C74.5213 4.624 74.5053 4.448 74.4733 4.256C74.4733 4.064 74.4093 3.888 74.2812 3.728C74.0893 3.472 73.6413 3.248 72.9373 3.056C72.2333 2.832 71.6733 2.72 71.2573 2.72C71.1293 2.528 71.0813 2.208 71.1133 1.76C71.1773 1.28 71.2253 1.024 71.2573 0.991999C71.9933 1.024 72.5853 1.056 73.0333 1.088C73.5133 1.12 73.9933 1.152 74.4733 1.184C74.9853 1.216 75.5933 1.232 76.2973 1.232ZM119.246 1.184C119.63 1.184 120.302 1.184 121.262 1.184C122.254 1.152 123.374 1.12 124.622 1.088C125.902 1.056 127.198 1.04 128.51 1.04C129.822 1.008 131.006 0.975999 132.062 0.943999C133.15 0.912 133.966 0.896 134.51 0.896C134.67 2.08 134.878 3.264 135.134 4.448C135.39 5.632 135.63 6.752 135.854 7.808C135.79 7.872 135.63 7.936 135.374 8C135.118 8.032 134.91 8.048 134.75 8.048C134.366 8.048 134.126 7.92 134.03 7.664C133.518 6.352 132.894 5.248 132.158 4.352C131.454 3.424 130.382 2.96 128.942 2.96H125.054C124.542 2.96 124.046 2.992 123.566 3.056C123.118 3.088 122.83 3.232 122.702 3.488C122.606 3.744 122.542 4.064 122.51 4.448C122.51 4.832 122.51 5.28 122.51 5.792C122.51 5.888 122.51 5.984 122.51 6.08C122.51 6.176 122.51 6.272 122.51 6.368V14.768C122.51 14.896 122.718 15.008 123.134 15.104C123.55 15.2 124.014 15.248 124.526 15.248H126.974C127.902 15.248 128.606 15.168 129.086 15.008C129.598 14.848 129.998 14.528 130.286 14.048C130.574 13.568 130.846 12.88 131.102 11.984C131.166 11.728 131.358 11.6 131.678 11.6C132.094 11.6 132.382 11.68 132.542 11.84V20.864C132.51 20.896 132.398 20.928 132.206 20.96C132.046 20.992 131.886 21.008 131.726 21.008C131.31 21.008 131.086 20.896 131.054 20.672C130.766 19.552 130.478 18.816 130.19 18.464C129.902 18.112 129.646 17.888 129.422 17.792C128.878 17.568 127.694 17.456 125.87 17.456C125.454 17.456 124.974 17.472 124.43 17.504C123.918 17.536 123.47 17.6 123.086 17.696C122.702 17.792 122.51 17.936 122.51 18.128V25.376C122.51 25.376 122.51 25.408 122.51 25.472C122.51 25.632 122.51 25.952 122.51 26.432C122.51 26.88 122.526 27.36 122.558 27.872C122.622 28.384 122.718 28.784 122.846 29.072C123.006 29.392 123.406 29.632 124.046 29.792C124.686 29.952 125.31 30.032 125.918 30.032H128.99C129.886 30.032 130.702 29.904 131.438 29.648C132.206 29.392 132.846 29.008 133.358 28.496C133.87 27.984 134.318 27.376 134.702 26.672C135.086 25.968 135.486 25.088 135.902 24.032C135.966 23.84 136.174 23.744 136.526 23.744C136.782 23.744 137.07 23.776 137.39 23.84C137.71 23.904 137.902 23.968 137.966 24.032C137.678 24.864 137.358 25.776 137.006 26.768C136.654 27.76 136.334 28.72 136.046 29.648C135.758 30.576 135.55 31.392 135.422 32.096C135.102 32.096 134.366 32.096 133.214 32.096C132.062 32.096 130.67 32.096 129.038 32.096C127.406 32.096 125.694 32.096 123.902 32.096C122.142 32.096 120.446 32.096 118.814 32.096C117.214 32.096 115.838 32.096 114.686 32.096C113.566 32.128 112.846 32.144 112.526 32.144C112.43 31.984 112.366 31.696 112.334 31.28C112.334 30.864 112.398 30.576 112.526 30.416C112.75 30.384 113.086 30.352 113.534 30.32C113.982 30.256 114.414 30.176 114.83 30.08C115.246 29.952 115.486 29.792 115.55 29.6C115.742 29.12 115.854 28.512 115.886 27.776C115.918 27.04 115.934 26.176 115.934 25.184V7.952C115.934 6.928 115.918 6.064 115.886 5.36C115.854 4.624 115.742 4.016 115.55 3.536C115.486 3.312 115.246 3.152 114.83 3.056C114.414 2.96 113.982 2.896 113.534 2.864C113.086 2.832 112.75 2.816 112.526 2.816C112.398 2.656 112.334 2.352 112.334 1.904C112.366 1.456 112.43 1.168 112.526 1.04C113.582 1.104 114.718 1.152 115.934 1.184C117.15 1.184 118.254 1.184 119.246 1.184ZM165.466 0.607998C166.874 0.607998 168.17 0.751998 169.354 1.04C170.57 1.296 171.898 1.584 173.338 1.904C173.466 3.152 173.562 4.4 173.626 5.648C173.722 6.896 173.802 8.24 173.866 9.68C173.738 9.872 173.562 9.968 173.338 9.968C173.338 9.968 173.322 9.968 173.29 9.968C173.162 9.968 172.906 9.968 172.522 9.968C172.17 9.936 171.978 9.824 171.946 9.632C171.85 8.96 171.642 8.224 171.322 7.424C171.002 6.624 170.57 5.856 170.026 5.12C169.482 4.384 168.842 3.776 168.106 3.296C167.402 2.816 166.602 2.576 165.706 2.576C165.098 2.576 164.49 2.704 163.882 2.96C163.274 3.184 162.762 3.6 162.346 4.208C161.93 4.784 161.722 5.6 161.722 6.656C161.722 7.616 162.09 8.56 162.826 9.488C163.562 10.384 164.442 11.232 165.466 12.032C166.522 12.8 167.53 13.504 168.49 14.144C169.514 14.816 170.554 15.552 171.61 16.352C172.698 17.12 173.594 18.096 174.298 19.28C175.034 20.432 175.402 21.936 175.402 23.792C175.402 25.488 174.906 26.992 173.914 28.304C172.922 29.616 171.642 30.64 170.074 31.376C168.538 32.112 166.906 32.48 165.178 32.48C163.802 32.48 162.314 32.352 160.714 32.096C159.146 31.84 157.658 31.552 156.25 31.232C156.09 30.528 155.93 29.632 155.77 28.544C155.61 27.456 155.466 26.416 155.338 25.424C155.242 24.4 155.178 23.68 155.146 23.264C155.242 23.104 155.45 22.96 155.77 22.832C156.122 22.704 156.362 22.64 156.49 22.64C156.874 22.64 157.082 22.752 157.114 22.976C157.21 23.616 157.466 24.368 157.882 25.232C158.298 26.064 158.826 26.896 159.466 27.728C160.138 28.528 160.906 29.2 161.77 29.744C162.666 30.256 163.642 30.512 164.698 30.512C165.914 30.512 166.97 30.176 167.866 29.504C168.794 28.8 169.258 27.616 169.258 25.952C169.258 25.12 169.002 24.336 168.49 23.6C168.01 22.832 167.402 22.128 166.666 21.488C165.93 20.848 165.162 20.256 164.362 19.712C163.562 19.168 162.874 18.704 162.298 18.32C161.178 17.552 160.09 16.768 159.034 15.968C157.978 15.168 157.114 14.224 156.442 13.136C155.802 12.048 155.482 10.688 155.482 9.056C155.482 7.424 155.978 5.984 156.97 4.736C157.962 3.456 159.226 2.448 160.762 1.712C162.298 0.975998 163.866 0.607998 165.466 0.607998ZM189.073 25.376C189.073 25.376 189.073 25.408 189.073 25.472C189.073 25.632 189.073 25.952 189.073 26.432C189.073 26.88 189.089 27.36 189.121 27.872C189.185 28.384 189.281 28.784 189.409 29.072C189.569 29.392 189.969 29.632 190.609 29.792C191.249 29.952 191.873 30.032 192.481 30.032H195.553C196.449 30.032 197.265 29.904 198.001 29.648C198.769 29.392 199.409 29.008 199.921 28.496C200.433 27.984 200.881 27.376 201.265 26.672C201.649 25.968 202.049 25.088 202.465 24.032C202.529 23.84 202.737 23.744 203.089 23.744C203.345 23.744 203.633 23.776 203.953 23.84C204.273 23.904 204.465 23.968 204.529 24.032C204.241 24.864 203.921 25.776 203.569 26.768C203.217 27.76 202.897 28.72 202.609 29.648C202.321 30.576 202.113 31.392 201.984 32.096H185.809C184.145 32.096 182.689 32.096 181.441 32.096C180.193 32.128 179.409 32.144 179.089 32.144C178.993 31.984 178.929 31.696 178.896 31.28C178.896 30.864 178.961 30.576 179.089 30.416C179.313 30.384 179.649 30.352 180.097 30.32C180.545 30.256 180.977 30.176 181.393 30.08C181.809 29.952 182.049 29.792 182.113 29.6C182.305 29.12 182.417 28.512 182.449 27.776C182.481 27.04 182.497 26.176 182.497 25.184V7.952C182.497 6.928 182.481 6.064 182.449 5.36C182.417 4.624 182.305 4.016 182.113 3.536C182.049 3.312 181.809 3.152 181.393 3.056C180.977 2.928 180.545 2.848 180.097 2.816C179.649 2.752 179.313 2.72 179.089 2.72C178.961 2.56 178.896 2.272 178.896 1.856C178.929 1.408 178.993 1.12 179.089 0.991999C180.016 1.088 181.121 1.168 182.401 1.232C183.681 1.264 184.817 1.28 185.809 1.28C186.801 1.28 187.921 1.264 189.169 1.232C190.449 1.168 191.537 1.088 192.433 0.991999C192.529 1.12 192.577 1.408 192.577 1.856C192.609 2.272 192.561 2.56 192.433 2.72C192.241 2.72 191.905 2.752 191.424 2.816C190.977 2.848 190.545 2.928 190.129 3.056C189.745 3.152 189.505 3.312 189.409 3.536C189.249 3.952 189.153 4.48 189.121 5.12C189.089 5.76 189.073 6.496 189.073 7.328C189.073 7.424 189.073 7.536 189.073 7.664C189.073 7.76 189.073 7.856 189.073 7.952V25.376ZM212.949 1.28C213.941 1.28 215.061 1.264 216.309 1.232C217.589 1.168 218.677 1.088 219.573 0.991999C219.669 1.12 219.717 1.408 219.717 1.856C219.749 2.272 219.701 2.56 219.573 2.72C219.381 2.72 219.045 2.752 218.565 2.816C218.117 2.848 217.685 2.928 217.269 3.056C216.885 3.152 216.645 3.312 216.549 3.536C216.389 3.952 216.293 4.48 216.261 5.12C216.229 5.76 216.213 6.496 216.213 7.328C216.213 7.424 216.213 7.536 216.213 7.664C216.213 7.76 216.213 7.856 216.213 7.952V25.184C216.213 25.28 216.213 25.392 216.213 25.52C216.213 25.616 216.213 25.712 216.213 25.808C216.213 26.64 216.229 27.376 216.261 28.016C216.293 28.656 216.389 29.184 216.549 29.6C216.645 29.792 216.885 29.952 217.269 30.08C217.685 30.208 218.117 30.304 218.565 30.368C219.045 30.4 219.381 30.432 219.573 30.464C219.701 30.624 219.749 30.912 219.717 31.328C219.717 31.744 219.669 32.032 219.573 32.192C218.677 32.096 217.573 32.016 216.261 31.952C214.981 31.888 213.845 31.856 212.853 31.856C211.861 31.856 210.741 31.888 209.493 31.952C208.245 32.016 207.157 32.096 206.229 32.192C206.133 32.032 206.069 31.744 206.037 31.328C206.037 30.912 206.101 30.624 206.229 30.464C206.453 30.432 206.789 30.4 207.237 30.368C207.685 30.304 208.117 30.208 208.533 30.08C208.949 29.952 209.189 29.792 209.253 29.6C209.445 29.12 209.557 28.512 209.589 27.776C209.621 27.04 209.637 26.176 209.637 25.184V7.952C209.637 6.928 209.621 6.064 209.589 5.36C209.557 4.624 209.445 4.016 209.253 3.536C209.189 3.312 208.949 3.152 208.533 3.056C208.117 2.928 207.685 2.848 207.237 2.816C206.789 2.752 206.453 2.72 206.229 2.72C206.101 2.56 206.037 2.272 206.037 1.856C206.069 1.408 206.133 1.12 206.229 0.991999C207.157 1.088 208.261 1.168 209.541 1.232C210.821 1.264 211.957 1.28 212.949 1.28ZM247.777 9.392C247.777 11.248 247.313 12.864 246.385 14.24C245.489 15.616 244.321 16.688 242.881 17.456C241.473 18.192 239.969 18.56 238.369 18.56C237.537 18.56 236.817 18.416 236.209 18.128C235.633 17.84 235.265 17.616 235.105 17.456C235.009 17.36 234.929 17.2 234.865 16.976C234.801 16.72 234.769 16.496 234.769 16.304C234.769 16.08 234.833 15.968 234.961 15.968C235.217 16.032 235.505 16.08 235.825 16.112C236.177 16.144 236.529 16.16 236.881 16.16C238.033 16.16 238.977 15.6 239.713 14.48C240.449 13.328 240.817 11.856 240.817 10.064C240.817 8.816 240.593 7.664 240.145 6.608C239.729 5.52 239.121 4.64 238.321 3.968C237.553 3.296 236.641 2.96 235.585 2.96C235.073 2.96 234.577 2.992 234.097 3.056C233.649 3.088 233.361 3.232 233.233 3.488C233.137 3.744 233.073 4.064 233.041 4.448C233.041 4.832 233.041 5.28 233.041 5.792C233.041 5.888 233.041 5.984 233.041 6.08C233.041 6.176 233.041 6.272 233.041 6.368V25.184C233.041 25.28 233.041 25.392 233.041 25.52C233.041 25.616 233.041 25.712 233.041 25.808C233.041 26.64 233.057 27.376 233.089 28.016C233.121 28.656 233.217 29.184 233.377 29.6C233.473 29.792 233.713 29.952 234.097 30.08C234.513 30.208 234.945 30.304 235.393 30.368C235.873 30.4 236.209 30.432 236.401 30.464C236.529 30.624 236.577 30.912 236.545 31.328C236.545 31.744 236.497 32.032 236.401 32.192C235.505 32.096 234.401 32.016 233.089 31.952C231.809 31.888 230.673 31.856 229.681 31.856C228.689 31.856 227.569 31.888 226.321 31.952C225.073 32.016 223.985 32.096 223.057 32.192C222.961 32.032 222.897 31.744 222.865 31.328C222.865 30.912 222.929 30.624 223.057 30.464C223.281 30.432 223.617 30.4 224.065 30.368C224.513 30.304 224.945 30.208 225.361 30.08C225.777 29.952 226.017 29.792 226.081 29.6C226.273 29.12 226.385 28.512 226.417 27.776C226.449 27.04 226.465 26.176 226.465 25.184V7.952C226.465 6.928 226.449 6.064 226.417 5.36C226.385 4.624 226.273 4.016 226.081 3.536C226.017 3.312 225.777 3.152 225.361 3.056C224.945 2.96 224.513 2.896 224.065 2.864C223.617 2.832 223.281 2.816 223.057 2.816C222.929 2.656 222.865 2.352 222.865 1.904C222.897 1.456 222.961 1.168 223.057 1.04C224.113 1.104 225.249 1.152 226.465 1.184C227.681 1.184 228.785 1.184 229.777 1.184C230.769 1.184 231.873 1.168 233.089 1.136C234.337 1.072 235.649 1.04 237.025 1.04C238.977 1.04 240.769 1.376 242.401 2.048C244.033 2.688 245.329 3.632 246.289 4.88C247.281 6.096 247.777 7.6 247.777 9.392Z" fill="white"/>
</svg>
